# xmcd
#
# Track frame offsets: 
#        150
#        20265
#        39225
#        58420
#        77582
#        100677
#        124587
#        146660
#        165635
#        179602
#        200202
#        220002
#        252060
#        277880
#        295937
#
# Disc length: 4193 seconds
#
# Revision: 1
# Processed by: cddbd v1.5.2PL0 Copyright (c) Steve Scherf et al.
# Submitted via: ExactAudioCopy v1.3
#
DISCID=d5105f0f
DTITLE=李宗盛 - 既然青春留不住 還是做個大叔好 演唱会巡回影音纪录 CD1
DYEAR=2016
DGENRE=Pop
TTITLE0=愛情有什麼道理
TTITLE1=生命中的精靈
TTITLE2=飄洋過海來看你
TTITLE3=不必在乎我是誰
TTITLE4=領悟
TTITLE5=十二樓
TTITLE6=晚婚
TTITLE7=因為單身的緣故
TTITLE8=寂寞難耐
TTITLE9=我是真的愛你
TTITLE10=鬼迷心竅
TTITLE11=別怕我傷心+聽見有人叫你寶貝+愛情少尉愛如潮水(OT:愛你的餘溫) 組曲
TTITLE12=讓我歡喜讓我憂(OT :OTOKOTO ONNA)
TTITLE13=飛
TTITLE14=傷心地鐵
EXTD=
EXTT0=
EXTT1=
EXTT2=
EXTT3=
EXTT4=
EXTT5=
EXTT6=
EXTT7=
EXTT8=
EXTT9=
EXTT10=
EXTT11=
EXTT12=
EXTT13=
EXTT14=
PLAYORDER=
